<svg width="36" height="36" viewBox="0 0 36 36" fill="none" xmlns="http://www.w3.org/2000/svg">
<path d="M6.75195 5.63091V30.3761C6.75195 31.6168 7.76074 32.6256 9.00151 32.6256H26.998C28.2388 32.6256 29.2476 31.6168 29.2476 30.3761V5.63091C29.2476 4.39014 28.2388 3.38135 26.998 3.38135H9.00151C7.76074 3.38135 6.75195 4.39014 6.75195 5.63091ZM23.6237 7.88047H12.3759C11.7537 7.88047 11.2511 7.37783 11.2511 6.75569C11.2511 6.13354 11.7537 5.63091 12.3759 5.63091H23.6237C24.2458 5.63091 24.7484 6.13354 24.7484 6.75569C24.7484 7.37783 24.2458 7.88047 23.6237 7.88047Z" fill="#FEC83D"/>
<path d="M24.7484 18.0035C24.7484 14.1476 23.3636 10.6186 21.0648 7.88047H12.3759C11.7537 7.88047 11.2511 7.37783 11.2511 6.75569C11.2511 6.13354 11.7537 5.63091 12.3759 5.63091H18.7449C17.5709 4.70648 16.2669 3.94374 14.8574 3.38135H9.00151C7.76074 3.38135 6.75195 4.39014 6.75195 5.63091V30.3761C6.75195 31.6168 7.76074 32.6256 9.00151 32.6256H14.8574C20.6535 30.3023 24.7484 24.6327 24.7484 18.0035Z" fill="#FFDB5C"/>
<path d="M14.6255 15.7609C14.6255 16.3148 14.7128 16.8633 14.8823 17.375C15.0519 17.8868 15.3005 18.3517 15.6138 18.7434C15.9271 19.1351 16.2991 19.4458 16.7085 19.6577C17.1179 19.8697 17.5567 19.9788 17.9998 19.9788C18.443 19.9788 18.8817 19.8697 19.2911 19.6577C19.7005 19.4458 20.0725 19.1351 20.3859 18.7434C20.6992 18.3517 20.9477 17.8868 21.1173 17.375C21.2869 16.8633 21.3742 16.3148 21.3742 15.7609C21.3742 14.6422 21.0187 13.5694 20.3859 12.7784C19.753 11.9874 18.8948 11.543 17.9998 11.543C17.1049 11.543 16.2466 11.9874 15.6138 12.7784C14.981 13.5694 14.6255 14.6422 14.6255 15.7609Z" fill="white"/>
<path d="M21.7154 28.1197C25.7646 28.1197 26.3446 26.2462 22.9738 24.0037C21.5502 23.0582 19.8384 22.5063 18.0001 22.5063C16.1618 22.5063 14.4535 23.0582 13.0265 24.0037C9.65214 26.2462 10.2356 28.1197 14.2848 28.1197H21.7154Z" fill="white"/>
</svg>
