<svg width="41" height="41" viewBox="0 0 41 41" fill="none" xmlns="http://www.w3.org/2000/svg">
<rect x="0.5" y="0.5" width="40" height="40" rx="11.5" fill="white" stroke="#E8ECF4"/>
<g clip-path="url(#clip0_167_307)">
<path d="M28.2115 9.73579C28.1196 9.6561 28.0104 9.59287 27.8902 9.54972C27.7699 9.50658 27.6411 9.48438 27.5109 9.48438C27.3807 9.48438 27.2518 9.50658 27.1316 9.54972C27.0114 9.59287 26.9022 9.6561 26.8103 9.73579L20.2315 15.425C20.1581 15.4884 20.0999 15.5636 20.0602 15.6464C20.0204 15.7292 20 15.818 20 15.9077C20 15.9973 20.0204 16.0861 20.0602 16.169C20.0999 16.2518 20.1581 16.327 20.2315 16.3903L26.8103 22.0796C27.1982 22.415 27.8236 22.415 28.2115 22.0796C28.5994 21.7441 28.5994 21.2033 28.2115 20.8678L22.4799 15.9043L28.2194 10.9407C28.5994 10.6121 28.5994 10.0644 28.2115 9.73579Z" fill="#1E232C" stroke="#1E232C" stroke-width="0.2"/>
<path d="M14.2747 9.73824C14.3611 9.65777 14.4639 9.59392 14.577 9.55036C14.6901 9.5068 14.8113 9.48438 14.9338 9.48438C15.0563 9.48438 15.1775 9.5068 15.2906 9.55036C15.4037 9.59392 15.5065 9.65777 15.5929 9.73824L21.7822 15.4828C21.8512 15.5468 21.906 15.6228 21.9434 15.7064C21.9808 15.79 22 15.8797 22 15.9702C22 16.0607 21.9808 16.1504 21.9434 16.234C21.906 16.3176 21.8512 16.3936 21.7822 16.4576L15.5929 22.2022C15.228 22.5409 14.6396 22.5409 14.2747 22.2022C13.9097 21.8634 13.9097 21.3173 14.2747 20.9786L19.667 15.9667L14.2672 10.9549C13.9097 10.6231 13.9097 10.0701 14.2747 9.73824Z" fill="#1E232C" stroke="#1E232C" stroke-width="0.2"/>
</g>
<defs>
<clipPath id="clip0_167_307">
<rect width="19" height="16.431" fill="white" transform="translate(9 7.75488)"/>
</clipPath>
</defs>
</svg>
