<svg width="41" height="41" viewBox="0 0 41 41" fill="none" xmlns="http://www.w3.org/2000/svg">
<rect x="0.5" y="0.5" width="40" height="40" rx="11.5" fill="white" stroke="#E8ECF4"/>
<path d="M23.1576 13.3671C23.0656 13.2749 22.9564 13.2018 22.8362 13.1519C22.716 13.102 22.5871 13.0764 22.4569 13.0764C22.3268 13.0764 22.1979 13.102 22.0777 13.1519C21.9574 13.2018 21.8482 13.2749 21.7563 13.3671L15.1776 19.9458C15.1042 20.0191 15.0459 20.1061 15.0062 20.2018C14.9665 20.2976 14.946 20.4003 14.946 20.504C14.946 20.6076 14.9665 20.7103 15.0062 20.8061C15.0459 20.9018 15.1042 20.9888 15.1776 21.0621L21.7563 27.6408C22.1442 28.0287 22.7696 28.0287 23.1576 27.6408C23.5455 27.2529 23.5455 26.6275 23.1576 26.2396L17.4259 20.5L23.1655 14.7604C23.5455 14.3804 23.5455 13.7471 23.1576 13.3671Z" fill="#1E232C" stroke="#1E232C" stroke-width="0.2"/>
</svg>
