<svg width="30" height="30" viewBox="0 0 30 30" fill="none" xmlns="http://www.w3.org/2000/svg">
<circle cx="15" cy="15" r="15" transform="matrix(-1 0 0 1 30 0)" fill="#414141"/>
<path d="M22 14.5C22 14.0513 21.6362 13.6875 21.1875 13.6875H12.1282L16.0891 9.72666C16.4128 9.40293 16.4081 8.87665 16.0787 8.55868C15.7575 8.24855 15.2469 8.25305 14.9312 8.5688L9.06435 14.4356C9.02881 14.4712 9.02881 14.5288 9.06435 14.5644L14.93 20.43C15.2448 20.7448 15.7552 20.7448 16.07 20.43C16.3838 20.1162 16.3849 19.6078 16.0725 19.2926L12.1282 15.3125H21.1875C21.6362 15.3125 22 14.9487 22 14.5Z" fill="#EBEBEB"/>
</svg>
