<svg width="30" height="30" viewBox="0 0 30 30" fill="none" xmlns="http://www.w3.org/2000/svg">
<path fill-rule="evenodd" clip-rule="evenodd" d="M27.5 15C27.5 21.9035 21.9035 27.5 15 27.5C8.09643 27.5 2.5 21.9035 2.5 15C2.5 8.09643 8.09643 2.5 15 2.5C21.9035 2.5 27.5 8.09643 27.5 15ZM30 15C30 23.2843 23.2843 30 15 30C6.71573 30 0 23.2843 0 15C0 6.71573 6.71573 0 15 0C23.2843 0 30 6.71573 30 15ZM10.625 12.5C11.6605 12.5 12.5 11.6605 12.5 10.625C12.5 9.58947 11.6605 8.75 10.625 8.75C9.58947 8.75 8.75 9.58947 8.75 10.625C8.75 11.6605 9.58947 12.5 10.625 12.5ZM21.25 10.625C21.25 11.6605 20.4105 12.5 19.375 12.5C18.3395 12.5 17.5 11.6605 17.5 10.625C17.5 9.58947 18.3395 8.75 19.375 8.75C20.4105 8.75 21.25 9.58947 21.25 10.625ZM15 20C11.9638 20 10 18.0752 10 16.25H7.5C7.5 19.9477 11.1326 22.5 15 22.5C18.8675 22.5 22.5 19.9477 22.5 16.25H20C20 18.0752 18.0362 20 15 20Z" fill="black"/>
</svg>
