<svg width="40" height="40" viewBox="0 0 40 40" fill="none" xmlns="http://www.w3.org/2000/svg">
<circle cx="20" cy="20" r="20" fill="#FF7208"/>
<path d="M29.2913 13.6118C28.7805 13.1008 28.1741 12.6955 27.5066 12.4189C26.8392 12.1423 26.1238 12 25.4013 12C24.6788 12 23.9634 12.1423 23.2959 12.4189C22.6285 12.6955 22.022 13.1008 21.5113 13.6118L20.4513 14.6718L19.3913 13.6118C18.3596 12.5801 16.9603 12.0005 15.5013 12.0005C14.0423 12.0005 12.643 12.5801 11.6113 13.6118C10.5796 14.6435 10 16.0428 10 17.5018C10 18.9609 10.5796 20.3601 11.6113 21.3918L12.6713 22.4518L20.4513 30.2318L28.2313 22.4518L29.2913 21.3918C29.8023 20.8811 30.2076 20.2746 30.4842 19.6072C30.7608 18.9397 30.9031 18.2243 30.9031 17.5018C30.9031 16.7793 30.7608 16.0639 30.4842 15.3965C30.2076 14.729 29.8023 14.1226 29.2913 13.6118Z" fill="white"/>
</svg>
