<svg width="40" height="40" viewBox="0 0 40 40" fill="none" xmlns="http://www.w3.org/2000/svg">
<path d="M11.2 20.8857H10C10 20.9137 10.001 20.9417 10.0029 20.9696L11.2 20.8857ZM12.4512 21.9833V20.7833C12.4269 20.7833 12.4027 20.7841 12.3784 20.7856L12.4512 21.9833ZM27.5472 21.9833L27.6888 20.7918C27.6418 20.7862 27.5946 20.7833 27.5472 20.7833V21.9833ZM28.6064 20.3001L29.6194 19.6569C29.6074 19.6379 29.5947 19.6192 29.5816 19.6009L28.6064 20.3001ZM25.5088 15.9801L26.4842 15.2808L26.4747 15.2681L25.5088 15.9801ZM25.5088 14.8105L26.4749 15.5226L26.484 15.5098L25.5088 14.8105ZM28.6064 10.4905L29.5816 11.1898C29.5947 11.1715 29.6074 11.1528 29.6194 11.1338L28.6064 10.4905ZM27.5472 8.80734V10.0073C27.5946 10.0073 27.6418 10.0045 27.6888 9.99896L27.5472 8.80734ZM12.4512 8.80734L12.3784 10.0051C12.4027 10.0066 12.4269 10.0073 12.4512 10.0073V8.80734ZM11.2 9.90494L10.0029 9.82109C10.001 9.84901 10 9.87697 10 9.90494H11.2ZM12.4 20.8857C12.4 20.223 11.8627 19.6857 11.2 19.6857C10.5373 19.6857 10 20.223 10 20.8857H12.4ZM10 31.2073C10 31.87 10.5373 32.4073 11.2 32.4073C11.8627 32.4073 12.4 31.87 12.4 31.2073H10ZM10.0029 20.9696C10.0943 22.2736 11.2192 23.2604 12.524 23.1811L12.3784 20.7856C12.3781 20.7856 12.379 20.7855 12.3808 20.7857C12.3824 20.786 12.3841 20.7863 12.3857 20.787C12.3887 20.7879 12.3903 20.7892 12.3911 20.7899C12.3919 20.7905 12.3933 20.7919 12.3947 20.7948C12.3955 20.7964 12.3961 20.798 12.3966 20.7996C12.397 20.8014 12.3971 20.8022 12.3971 20.8019L10.0029 20.9696ZM12.4512 23.1833H27.5472V20.7833H12.4512V23.1833ZM27.4056 23.175C28.2877 23.2798 29.1514 22.8675 29.6245 22.1156L27.5931 20.8374C27.6136 20.8051 27.6509 20.7871 27.6888 20.7918L27.4056 23.175ZM29.6245 22.1156C30.0976 21.3638 30.0957 20.4068 29.6194 19.6569L27.5934 20.9435C27.5728 20.9111 27.5728 20.8699 27.5931 20.8374L29.6245 22.1156ZM29.5816 19.6009L26.4842 15.2808L24.5336 16.6794L27.6312 20.9995L29.5816 19.6009ZM26.4747 15.2681C26.5306 15.3438 26.5307 15.447 26.4749 15.5226L24.5429 14.0985C23.9744 14.8696 23.9744 15.921 24.5429 16.6922L26.4747 15.2681ZM26.484 15.5098L29.5816 11.1898L27.6312 9.79129L24.5336 14.1113L26.484 15.5098ZM29.6194 11.1338C30.0957 10.3839 30.0976 9.42689 29.6245 8.67505L27.5931 9.95329C27.5728 9.92088 27.5728 9.87961 27.5934 9.84728L29.6194 11.1338ZM29.6245 8.67505C29.1514 7.92321 28.2877 7.51089 27.4056 7.61574L27.6888 9.99896C27.6509 10.0035 27.6136 9.98571 27.5931 9.95329L29.6245 8.67505ZM27.5472 7.60734H12.4512V10.0073H27.5472V7.60734ZM12.524 7.60955C11.2192 7.5303 10.0943 8.51713 10.0029 9.82109L12.3971 9.9888C12.3971 9.98848 12.397 9.98937 12.3966 9.99107C12.3961 9.99269 12.3955 9.99433 12.3947 9.99582C12.3933 9.99867 12.3919 10.0001 12.3911 10.0008C12.3903 10.0015 12.3887 10.0027 12.3857 10.0037C12.3841 10.0043 12.3824 10.0047 12.3808 10.0049C12.379 10.0052 12.3781 10.0051 12.3784 10.0051L12.524 7.60955ZM10 9.90494V20.8857H12.4V9.90494H10ZM10 20.8857V26.8776H12.4V20.8857H10ZM10 26.8776V31.2073H12.4V26.8776H10Z" fill="white"/>
</svg>
