<svg width="36" height="36" viewBox="0 0 36 36" fill="none" xmlns="http://www.w3.org/2000/svg">
<path d="M10.08 18.7973H9C9 18.8225 9.00088 18.8477 9.00264 18.8728L10.08 18.7973ZM11.2061 19.7852V18.7052C11.1842 18.7052 11.1624 18.7059 11.1406 18.7072L11.2061 19.7852ZM24.7925 19.7852L24.9199 18.7128C24.8776 18.7078 24.8351 18.7052 24.7925 18.7052V19.7852ZM25.7458 18.2703L26.6574 17.6914C26.6466 17.6743 26.6353 17.6574 26.6234 17.641L25.7458 18.2703ZM22.9579 14.3823L23.8357 13.7529L23.8272 13.7415L22.9579 14.3823ZM22.9579 13.3297L23.8274 13.9706L23.8356 13.959L22.9579 13.3297ZM25.7458 9.44168L26.6234 10.071C26.6353 10.0545 26.6466 10.0377 26.6574 10.0206L25.7458 9.44168ZM24.7925 7.9268V9.0068C24.8351 9.0068 24.8776 9.00428 24.9199 8.99926L24.7925 7.9268ZM11.2061 7.9268L11.1406 9.00482C11.1624 9.00614 11.1842 9.0068 11.2061 9.0068V7.9268ZM10.08 8.91464L9.00264 8.83917C9.00088 8.8643 9 8.88947 9 8.91464H10.08ZM11.16 18.7973C11.16 18.2009 10.6765 17.7173 10.08 17.7173C9.48354 17.7173 9 18.2009 9 18.7973H11.16ZM9 28.0868C9 28.6832 9.48354 29.1668 10.08 29.1668C10.6765 29.1668 11.16 28.6832 11.16 28.0868H9ZM9.00264 18.8728C9.08484 20.0464 10.0973 20.9346 11.2716 20.8632L11.1406 18.7072C11.1403 18.7072 11.1411 18.7072 11.1427 18.7073C11.1442 18.7076 11.1457 18.7079 11.1471 18.7085C11.1498 18.7093 11.1513 18.7105 11.152 18.7111C11.1527 18.7117 11.154 18.7129 11.1552 18.7155C11.1559 18.717 11.1565 18.7184 11.1569 18.7199C11.1573 18.7214 11.1574 18.7222 11.1574 18.7219L9.00264 18.8728ZM11.2061 20.8652H24.7925V18.7052H11.2061V20.8652ZM24.665 20.8577C25.4589 20.952 26.2362 20.5809 26.662 19.9043L24.8338 18.7538C24.8522 18.7248 24.8858 18.7086 24.9199 18.7128L24.665 20.8577ZM26.662 19.9043C27.0878 19.2276 27.0861 18.3663 26.6574 17.6914L24.8341 18.8493C24.8155 18.8202 24.8155 18.7831 24.8338 18.7538L26.662 19.9043ZM26.6234 17.641L23.8357 13.7529L22.0802 15.0117L24.8681 18.8997L26.6234 17.641ZM23.8272 13.7415C23.8775 13.8096 23.8777 13.9025 23.8274 13.9706L22.0886 12.6889C21.577 13.3829 21.577 14.3291 22.0886 15.0231L23.8272 13.7415ZM23.8356 13.959L26.6234 10.071L24.8681 8.81236L22.0802 12.7004L23.8356 13.959ZM26.6574 10.0206C27.0861 9.34572 27.0878 8.4844 26.662 7.80774L24.8338 8.95816C24.8155 8.92899 24.8155 8.89185 24.8341 8.86275L26.6574 10.0206ZM26.662 7.80774C26.2362 7.13109 25.4589 6.76 24.665 6.85436L24.9199 8.99926C24.8858 9.00333 24.8522 8.98733 24.8338 8.95816L26.662 7.80774ZM24.7925 6.8468H11.2061V9.0068H24.7925V6.8468ZM11.2716 6.84879C10.0973 6.77747 9.08484 7.66562 9.00264 8.83917L11.1574 8.99011C11.1574 8.98983 11.1573 8.99063 11.1569 8.99216C11.1565 8.99361 11.1559 8.9951 11.1552 8.99644C11.154 8.999 11.1527 9.00029 11.152 9.00091C11.1513 9.00153 11.1498 9.00261 11.1471 9.00356C11.1457 9.00405 11.1442 9.00443 11.1427 9.00464C11.1411 9.00486 11.1403 9.0048 11.1406 9.00482L11.2716 6.84879ZM9 8.91464V18.7973H11.16V8.91464H9ZM9 18.7973V24.19H11.16V18.7973H9ZM9 24.19V28.0868H11.16V24.19H9Z" fill="#404040"/>
</svg>
