<svg width="37" height="39" viewBox="0 0 37 39" fill="none" xmlns="http://www.w3.org/2000/svg">
<path d="M27.1796 18.7921C26.601 18.2225 25.9119 17.7708 25.1523 17.4631C24.3928 17.1555 23.5778 16.998 22.7552 17C21.9325 16.998 21.1177 17.1555 20.3582 17.4631C19.5986 17.7708 18.9095 18.2225 18.3309 18.7921L17.978 19.148L17.625 18.8043C16.4549 17.665 14.868 17.025 13.2133 17.025C11.5586 17.025 9.97171 17.665 8.80161 18.8043C7.64682 19.9516 7 21.494 7 23.1004C7 24.7068 7.64682 26.2492 8.80161 27.3964L17.3351 35.7307C17.5124 35.9032 17.7526 36 18.0032 36C18.2537 36 18.494 35.9032 18.6713 35.7307L27.2048 27.3964C28.36 26.2454 29.0046 24.6986 29 23.0892C28.9953 21.4798 28.3415 19.9366 27.1796 18.7921Z" fill="white"/>
<path d="M27.1796 18.7921C26.601 18.2225 25.9119 17.7708 25.1523 17.4631C24.3928 17.1555 23.5778 16.998 22.7552 17C21.9325 16.998 21.1177 17.1555 20.3582 17.4631C19.5986 17.7708 18.9095 18.2225 18.3309 18.7921L17.978 19.148L17.625 18.8043C16.4549 17.665 14.868 17.025 13.2133 17.025C11.5586 17.025 9.97171 17.665 8.80161 18.8043C7.64682 19.9516 7 21.494 7 23.1004C7 24.7068 7.64682 26.2492 8.80161 27.3964L17.3351 35.7307C17.5124 35.9032 17.7526 36 18.0032 36C18.2537 36 18.494 35.9032 18.6713 35.7307L27.2048 27.3964C28.36 26.2454 29.0046 24.6986 29 23.0892C28.9953 21.4798 28.3415 19.9366 27.1796 18.7921Z" stroke="white"/>
</svg>
