<svg width="14" height="14" viewBox="0 0 14 14" fill="none" xmlns="http://www.w3.org/2000/svg">
<g clip-path="url(#clip0_860_1197)">
<path d="M12.25 5.8335C12.25 9.91683 7 13.4168 7 13.4168C7 13.4168 1.75 9.91683 1.75 5.8335C1.75 4.44111 2.30312 3.10575 3.28769 2.12119C4.27226 1.13662 5.60761 0.583496 7 0.583496C8.39239 0.583496 9.72774 1.13662 10.7123 2.12119C11.6969 3.10575 12.25 4.44111 12.25 5.8335Z" fill="#B0B1BC" stroke="#B0B1BC" stroke-width="1.5" stroke-linecap="round" stroke-linejoin="round"/>
<path d="M7 7.5835C7.9665 7.5835 8.75 6.8 8.75 5.8335C8.75 4.867 7.9665 4.0835 7 4.0835C6.0335 4.0835 5.25 4.867 5.25 5.8335C5.25 6.8 6.0335 7.5835 7 7.5835Z" fill="white" stroke="white" stroke-linecap="round" stroke-linejoin="round"/>
</g>
<defs>
<clipPath id="clip0_860_1197">
<rect width="14" height="14" fill="white"/>
</clipPath>
</defs>
</svg>
