<svg width="17" height="10" viewBox="0 0 17 10" fill="none" xmlns="http://www.w3.org/2000/svg">
<path d="M1.29356 1.27465C1.2005 1.36113 1.12668 1.46387 1.0763 1.57697C1.02593 1.69008 1 1.81134 1 1.93379C1 2.05625 1.02593 2.17751 1.0763 2.29061C1.12668 2.40372 1.2005 2.50646 1.29356 2.59294L7.93634 8.78219C8.01029 8.85123 8.09813 8.90601 8.19483 8.94339C8.29154 8.98076 8.3952 9 8.49989 9C8.60459 9 8.70825 8.98076 8.80495 8.94339C8.90166 8.90601 8.9895 8.85123 9.06345 8.78219L15.7062 2.59294C16.0979 2.22799 16.0979 1.6396 15.7062 1.27465C15.3145 0.909699 14.683 0.909699 14.2913 1.27465L8.4959 6.66697L2.70045 1.2672C2.31675 0.909702 1.67726 0.909699 1.29356 1.27465Z" fill="#979797" stroke="white" stroke-width="0.2"/>
</svg>
