<svg width="37" height="41" viewBox="0 0 37 41" fill="none" xmlns="http://www.w3.org/2000/svg">
<path d="M34.9815 18.8665C34.9815 27.9176 28.4111 36.3948 19.4347 38.8751C18.8239 39.0416 18.1575 39.0416 17.5467 38.8751C8.57037 36.3948 2 27.9176 2 18.8665V10.7409C2 9.22319 3.14754 7.50183 4.57266 6.92804L14.8815 2.70798C17.1951 1.76401 19.8047 1.76401 22.1182 2.70798L32.4272 6.92804C33.8338 7.50183 35 9.22319 35 10.7409L34.9815 18.8665Z" stroke="#06BB8E" stroke-width="3.75" stroke-linecap="round" stroke-linejoin="round"/>
<path d="M18.3531 21.6003C20.4146 21.6003 22.0856 19.9292 22.0856 17.8678C22.0856 15.8064 20.4146 14.1353 18.3531 14.1353C16.2916 14.1353 14.6206 15.8064 14.6206 17.8678C14.6206 19.9292 16.2916 21.6003 18.3531 21.6003Z" stroke="#06BB8E" stroke-width="3.75" stroke-miterlimit="10" stroke-linecap="round" stroke-linejoin="round"/>
<path d="M18.353 21.6001V27.1989" stroke="#06BB8E" stroke-width="3.75" stroke-miterlimit="10" stroke-linecap="round" stroke-linejoin="round"/>
</svg>
