<svg width="52" height="51" viewBox="0 0 52 51" fill="none" xmlns="http://www.w3.org/2000/svg">
<path d="M36.9477 3.48535H3.63458C2.1795 3.48535 1 4.5934 1 5.96034V46.7977C1 48.1646 2.1795 49.2726 3.63458 49.2726H47.1052C48.5603 49.2726 49.7398 48.1646 49.7398 46.7977V14.0814" stroke="#8391A1" stroke-width="1.5" stroke-linecap="round" stroke-linejoin="round"/>
<path d="M50.2559 1H37.9785C37.5675 1 37.2344 1.31296 37.2344 1.69906V13.2328C37.2344 13.6189 37.5675 13.9318 37.9785 13.9318H50.2559C50.6669 13.9318 51.0001 13.6189 51.0001 13.2328V1.69906C51.0001 1.31296 50.6669 1 50.2559 1Z" stroke="#8391A1" stroke-width="1.5" stroke-linecap="round" stroke-linejoin="round"/>
<path d="M1.01978 40.6361C1.01978 40.6361 6.33781 37.1017 9.23453 35.7271C11.2567 34.7675 13.3152 33.2567 15.5736 33.4247C18.0106 33.606 19.592 36.1671 21.9125 36.8893C23.0081 37.2304 24.2098 37.4046 25.353 37.2559C26.7188 37.0781 28.0132 36.4722 29.1817 35.7848C32.1174 34.0576 34.0034 31.0244 36.9203 29.2691C37.962 28.6423 39.0901 27.9387 40.3259 27.8837C43.5046 27.7424 46.2785 30.341 49.4056 30.6545" stroke="#8391A1" stroke-width="1.5" stroke-linecap="round" stroke-linejoin="round"/>
<path d="M12.17 17.9869C15.0553 17.9869 17.3943 15.7897 17.3943 13.0792C17.3943 10.3687 15.0553 8.17139 12.17 8.17139C9.28477 8.17139 6.9458 10.3687 6.9458 13.0792C6.9458 15.7897 9.28477 17.9869 12.17 17.9869Z" stroke="#8391A1" stroke-width="1.5" stroke-linecap="round" stroke-linejoin="round"/>
<path d="M41.7197 6.83851L44.1142 4.58911V10.3557" stroke="#8391A1" stroke-width="1.5" stroke-linecap="round" stroke-linejoin="round"/>
<path d="M46.5146 6.82483L44.1201 4.57544V10.342" stroke="#8391A1" stroke-width="1.5" stroke-linecap="round" stroke-linejoin="round"/>
</svg>
