<svg width="36" height="32" viewBox="0 0 36 32" fill="none" xmlns="http://www.w3.org/2000/svg">
<path d="M6.75195 1.63091V26.3761C6.75195 27.6168 7.76074 28.6256 9.00151 28.6256H26.998C28.2388 28.6256 29.2476 27.6168 29.2476 26.3761V1.63091C29.2476 0.390135 28.2388 -0.618652 26.998 -0.618652H9.00151C7.76074 -0.618652 6.75195 0.390135 6.75195 1.63091ZM23.6237 3.88047H12.3759C11.7537 3.88047 11.2511 3.37783 11.2511 2.75569C11.2511 2.13354 11.7537 1.63091 12.3759 1.63091H23.6237C24.2458 1.63091 24.7484 2.13354 24.7484 2.75569C24.7484 3.37783 24.2458 3.88047 23.6237 3.88047Z" fill="#FEC83D"/>
<path d="M24.7484 14.0035C24.7484 10.1476 23.3636 6.61861 21.0648 3.88047H12.3759C11.7537 3.88047 11.2511 3.37783 11.2511 2.75569C11.2511 2.13354 11.7537 1.63091 12.3759 1.63091H18.7449C17.5709 0.706479 16.2669 -0.0562622 14.8574 -0.618652H9.00151C7.76074 -0.618652 6.75195 0.390135 6.75195 1.63091V26.3761C6.75195 27.6168 7.76074 28.6256 9.00151 28.6256H14.8574C20.6535 26.3023 24.7484 20.6327 24.7484 14.0035Z" fill="#FFDB5C"/>
<path d="M14.6255 11.7609C14.6255 12.3148 14.7128 12.8633 14.8823 13.375C15.0519 13.8868 15.3005 14.3517 15.6138 14.7434C15.9271 15.1351 16.2991 15.4458 16.7085 15.6577C17.1179 15.8697 17.5567 15.9788 17.9998 15.9788C18.443 15.9788 18.8817 15.8697 19.2911 15.6577C19.7005 15.4458 20.0725 15.1351 20.3859 14.7434C20.6992 14.3517 20.9477 13.8868 21.1173 13.375C21.2869 12.8633 21.3742 12.3148 21.3742 11.7609C21.3742 10.6422 21.0187 9.56939 20.3859 8.77837C19.753 7.98736 18.8948 7.54297 17.9998 7.54297C17.1049 7.54297 16.2466 7.98736 15.6138 8.77837C14.981 9.56939 14.6255 10.6422 14.6255 11.7609Z" fill="white"/>
<path d="M21.7154 24.1197C25.7646 24.1197 26.3446 22.2462 22.9738 20.0037C21.5502 19.0582 19.8384 18.5063 18.0001 18.5063C16.1618 18.5063 14.4535 19.0582 13.0265 20.0037C9.65214 22.2462 10.2356 24.1197 14.2848 24.1197H21.7154Z" fill="white"/>
</svg>
