<svg width="30" height="30" viewBox="0 0 30 30" fill="none" xmlns="http://www.w3.org/2000/svg">
<rect width="30" height="30" rx="15" fill="#FF3838"/>
<path d="M8.84093 15.7113H8C8 15.7338 8.00068 15.7564 8.00205 15.7789L8.84093 15.7113ZM9.71773 16.5962V15.6287C9.70072 15.6287 9.68373 15.6294 9.66675 15.6305L9.71773 16.5962ZM20.2966 16.5962L20.3958 15.6356C20.3629 15.631 20.3298 15.6287 20.2966 15.6287V16.5962ZM21.0388 15.2392L21.7487 14.7206C21.7403 14.7053 21.7314 14.6902 21.7222 14.6755L21.0388 15.2392ZM18.8681 11.7564L19.5516 11.1926L19.545 11.1824L18.8681 11.7564ZM18.8681 10.8135L19.5451 11.3875L19.5515 11.3772L18.8681 10.8135ZM21.0388 7.33067L21.7222 7.89442C21.7314 7.87966 21.7403 7.86461 21.7487 7.84929L21.0388 7.33067ZM20.2966 5.97368V6.94112C20.3298 6.94112 20.3629 6.93886 20.3958 6.93436L20.2966 5.97368ZM9.71773 5.97368L9.66675 6.93934C9.68373 6.94052 9.70072 6.94112 9.71773 6.94112V5.97368ZM8.84093 6.85856L8.00205 6.79096C8.00068 6.81347 8 6.83601 8 6.85856H8.84093ZM9.68185 15.7113C9.68185 15.177 9.30535 14.7438 8.84093 14.7438C8.3765 14.7438 8 15.177 8 15.7113H9.68185ZM8 24.0326C8 24.5668 8.3765 25 8.84093 25C9.30535 25 9.68185 24.5668 9.68185 24.0326H8ZM8.00205 15.7789C8.06606 16.8301 8.85439 17.6258 9.76871 17.5618L9.66675 15.6305L9.66836 15.6306L9.67184 15.6317C9.67395 15.6325 9.67563 15.634 9.67563 15.634C9.67563 15.634 9.67715 15.6357 9.67815 15.638L9.67945 15.6419L9.6798 15.6437L8.00205 15.7789ZM9.71773 17.5636H20.2966V15.6287H9.71773V17.5636ZM20.1974 17.5569C20.8155 17.6414 21.4207 17.309 21.7523 16.7028L20.3288 15.6723C20.3431 15.6463 20.3692 15.6318 20.3958 15.6356L20.1974 17.5569ZM21.7523 16.7028C22.0838 16.0967 22.0825 15.3252 21.7487 14.7206L20.329 15.7578C20.3145 15.7318 20.3145 15.6985 20.3288 15.6723L21.7523 16.7028ZM21.7222 14.6755L19.5516 11.1926L18.1847 12.3201L20.3555 15.803L21.7222 14.6755ZM19.545 11.1824C19.5842 11.2434 19.5843 11.3266 19.5451 11.3875L18.1912 10.2394C17.7929 10.8611 17.7929 11.7087 18.1912 12.3304L19.545 11.1824ZM19.5515 11.3772L21.7222 7.89442L20.3555 6.76694L18.1847 10.2497L19.5515 11.3772ZM21.7487 7.84929C22.0825 7.24471 22.0838 6.47316 21.7523 5.86702L20.3288 6.89754C20.3145 6.87141 20.3145 6.83814 20.329 6.81207L21.7487 7.84929ZM21.7523 5.86702C21.4207 5.26089 20.8155 4.92848 20.1974 5.01301L20.3958 6.93436C20.3692 6.93801 20.3431 6.92368 20.3288 6.89754L21.7523 5.86702ZM20.2966 5.00623H9.71773V6.94112H20.2966V5.00623ZM9.76871 5.00801C8.85439 4.94412 8.06606 5.73971 8.00205 6.79096L9.6798 6.92617L9.67945 6.928L9.67815 6.93183C9.67715 6.93413 9.67563 6.93584 9.67563 6.93584C9.67563 6.93584 9.67395 6.93736 9.67184 6.93821L9.66836 6.93918L9.66675 6.93934L9.76871 5.00801ZM8 6.85856V15.7113H9.68185V6.85856H8ZM8 15.7113V20.5419H9.68185V15.7113H8ZM8 20.5419V24.0326H9.68185V20.5419H8Z" fill="white"/>
</svg>
