<svg width="30" height="30" viewBox="0 0 30 30" fill="none" xmlns="http://www.w3.org/2000/svg">
<path d="M30 15C30 23.2843 23.2843 30 15 30C6.71573 30 0 23.2843 0 15C0 6.71573 6.71573 0 15 0C23.2843 0 30 6.71573 30 15Z" fill="#67FD6D"/>
<path d="M16.3573 23.0598L15.9056 23.8231C15.5029 24.5033 14.4971 24.5033 14.0944 23.8231L13.6427 23.0598C13.2923 22.4678 13.1171 22.1719 12.8357 22.0082C12.5542 21.8445 12.1999 21.8384 11.4913 21.8263C10.4452 21.8082 9.78907 21.7441 9.23882 21.5162C8.21787 21.0933 7.40672 20.2822 6.98383 19.2612C6.66667 18.4955 6.66667 17.5247 6.66667 15.5833V14.75C6.66667 12.0221 6.66667 10.6582 7.28067 9.65626C7.62423 9.09561 8.09561 8.62423 8.65626 8.28067C9.65821 7.66667 11.0221 7.66667 13.75 7.66667H16.25C18.9778 7.66667 20.3417 7.66667 21.3437 8.28067C21.9044 8.62423 22.3757 9.09561 22.7193 9.65626C23.3333 10.6582 23.3333 12.0221 23.3333 14.75V15.5833C23.3333 17.5247 23.3333 18.4955 23.0162 19.2612C22.5932 20.2822 21.7822 21.0933 20.7612 21.5162C20.2109 21.7441 19.5548 21.8082 18.5087 21.8263C17.8 21.8384 17.4458 21.8445 17.1643 22.0082C16.8829 22.1718 16.7077 22.4678 16.3573 23.0598Z" fill="white"/>
</svg>
