<svg width="24" height="25" viewBox="0 0 24 25" fill="none" xmlns="http://www.w3.org/2000/svg">
<path d="M4 24.6309C2.9 24.6309 1.9 24.2365 1.2 23.4478C0.5 22.7577 0 21.6733 0 20.6874C0 19.7015 0.4 18.617 1.2 17.9269L9.2 10.0398C9.1 9.5469 9 8.95537 9 8.36384C9 4.32173 12.4 0.969727 16.5 0.969727C17.4 0.969727 18.3 1.1669 19.1 1.46267L20.6 1.95561L16 6.49067L18.4 8.85679L23 4.32173L23.6 5.70196C23.8 6.58926 24 7.47655 24 8.36384C24 12.406 20.6 15.758 16.5 15.758C15.9 15.758 15.4 15.6594 14.8 15.5608L6.8 23.4478C6.1 24.2365 5.1 24.6309 4 24.6309ZM16.5 2.94149C13.5 2.94149 11 5.4062 11 8.36384C11 8.95537 11.1 9.44831 11.3 10.0398L11.5 10.6314L2.6 19.4057C2.2 19.7015 2 20.1944 2 20.6874C2 21.1803 2.2 21.6733 2.6 22.0676C3.3 22.8563 4.7 22.8563 5.4 22.0676L14.3 13.2933L14.9 13.4904C15.4 13.6876 16 13.7862 16.6 13.7862C19.6 13.7862 22.1 11.3215 22.1 8.36384C22.1 8.26526 22.1 8.16667 22.1 8.06808L18.5 11.6173L13.3 6.49067L16.9 2.94149C16.7 2.94149 16.6 2.94149 16.5 2.94149Z" fill="#8391A1"/>
</svg>
