<svg width="24" height="24" viewBox="0 0 24 24" fill="none" xmlns="http://www.w3.org/2000/svg">
<path opacity="0.01" fill-rule="evenodd" clip-rule="evenodd" d="M0 1V24H23V1H0Z" fill="#1C8FF8" fill-opacity="0.338428"/>
<path fill-rule="evenodd" clip-rule="evenodd" d="M11.2605 15.4185C12.7401 15.4185 13.9395 14.2191 13.9395 12.7395C13.9395 11.26 12.7401 10.0605 11.2605 10.0605C9.78096 10.0605 8.58154 11.26 8.58154 12.7395C8.58154 14.2191 9.78096 15.4185 11.2605 15.4185Z" stroke="#767676" stroke-width="1.5" stroke-linecap="round" stroke-linejoin="round"/>
<path fill-rule="evenodd" clip-rule="evenodd" d="M17.8686 15.4189C17.6254 15.9699 17.7421 16.6135 18.1632 17.0441L18.2168 17.0977C18.5522 17.4327 18.7406 17.8873 18.7406 18.3613C18.7406 18.8353 18.5522 19.2899 18.2168 19.6249C17.8818 19.9602 17.4273 20.1487 16.9532 20.1487C16.4792 20.1487 16.0247 19.9602 15.6897 19.6249L15.6361 19.5713C15.2055 19.1501 14.5619 19.0334 14.0108 19.2766C13.471 19.508 13.1202 20.0378 13.1178 20.625V20.7768C13.1178 21.7632 12.3182 22.5628 11.3319 22.5628C10.3455 22.5628 9.54587 21.7632 9.54587 20.7768V20.6965C9.53172 20.0916 9.14927 19.5569 8.58144 19.3481C8.03038 19.1048 7.38678 19.2215 6.95619 19.6427L6.90261 19.6963C6.56762 20.0317 6.11305 20.2201 5.63903 20.2201C5.16501 20.2201 4.71044 20.0317 4.37544 19.6963C4.04008 19.3613 3.85164 18.9068 3.85164 18.4327C3.85164 17.9587 4.04008 17.5041 4.37544 17.1692L4.42902 17.1156C4.85022 16.685 4.96692 16.0414 4.72371 15.4903C4.49237 14.9505 3.96256 14.5997 3.37529 14.5973H3.22348C2.23711 14.5973 1.4375 13.7977 1.4375 12.8113C1.4375 11.825 2.23711 11.0254 3.22348 11.0254H3.30385C3.9087 11.0112 4.44343 10.6288 4.65227 10.0609C4.89548 9.50987 4.77878 8.86627 4.35759 8.43569L4.30401 8.38211C3.96864 8.04711 3.7802 7.59254 3.7802 7.11852C3.7802 6.6445 3.96864 6.18993 4.30401 5.85494C4.639 5.51957 5.09357 5.33113 5.56759 5.33113C6.04161 5.33113 6.49618 5.51957 6.83117 5.85494L6.88475 5.90852C7.31534 6.32971 7.95894 6.44641 8.51 6.2032H8.58144C9.12123 5.97186 9.47209 5.44206 9.47443 4.85479V4.70298C9.47443 3.7166 10.274 2.91699 11.2604 2.91699C12.2468 2.91699 13.0464 3.7166 13.0464 4.70298V4.78335C13.0487 5.37062 13.3996 5.90042 13.9394 6.13176C14.4905 6.37497 15.1341 6.25827 15.5646 5.83708L15.6182 5.7835C15.9532 5.44813 16.4078 5.25969 16.8818 5.25969C17.3558 5.25969 17.8104 5.44813 18.1454 5.7835C18.4808 6.11849 18.6692 6.57307 18.6692 7.04708C18.6692 7.5211 18.4808 7.97567 18.1454 8.31067L18.0918 8.36425C17.6706 8.79483 17.5539 9.43844 17.7971 9.98949V10.0609C18.0285 10.6007 18.5583 10.9516 19.1455 10.9539H19.2973C20.2837 10.9539 21.0833 11.7535 21.0833 12.7399C21.0833 13.7263 20.2837 14.5259 19.2973 14.5259H19.217C18.6297 14.5282 18.0999 14.8791 17.8686 15.4189Z" stroke="#767676" stroke-width="1.5" stroke-linecap="round" stroke-linejoin="round"/>
</svg>
