<svg width="30" height="30" viewBox="0 0 30 30" fill="none" xmlns="http://www.w3.org/2000/svg">
<path d="M30 15C30 23.2843 23.2843 30 15 30C6.71573 30 0 23.2843 0 15C0 6.71573 6.71573 0 15 0C23.2843 0 30 6.71573 30 15Z" fill="#FF5252"/>
<path d="M18.2595 9.72884V20.3121C18.2595 20.7288 18.1345 21.1351 17.9053 21.4788L15.0615 25.708C14.6136 26.3851 13.499 26.8642 12.5511 26.5101C11.5303 26.1663 10.8532 25.0205 11.072 23.9996L11.6137 20.5934C11.6553 20.2809 11.572 19.9996 11.3949 19.7809C11.2178 19.583 10.9574 19.458 10.6762 19.458H6.39491C5.572 19.458 4.86366 19.1246 4.447 18.5413C4.05116 17.9788 3.97825 17.2496 4.23866 16.5101L6.80116 8.70801C7.12408 7.41634 8.53033 6.36426 9.92616 6.36426H13.9886C14.6865 6.36426 15.6657 6.60384 16.1136 7.05176L17.447 8.08301C17.9574 8.47884 18.2595 9.08301 18.2595 9.72884Z" fill="white"/>
<path d="M21.5721 22.3421H22.645C24.2596 22.3421 24.9159 21.7171 24.9159 20.1754V9.70671C24.9159 8.16504 24.2596 7.54004 22.645 7.54004H21.5721C19.9575 7.54004 19.3013 8.16504 19.3013 9.70671V20.1858C19.3013 21.7171 19.9575 22.3421 21.5721 22.3421Z" fill="white"/>
</svg>
