<svg width="30" height="30" viewBox="0 0 30 30" fill="none" xmlns="http://www.w3.org/2000/svg">
<path d="M30 15C30 23.2843 23.2843 30 15 30C6.71573 30 0 23.2843 0 15C0 6.71573 6.71573 0 15 0C23.2843 0 30 6.71573 30 15Z" fill="#8872FF"/>
<path d="M10.9108 5V7.94643M18.7678 5V7.94643M6.49117 11.9638H23.1876M14.835 16.4911H14.8446M11.1997 16.4911H11.2093M11.1997 19.4375H11.2093M20.7323 17.7681C22.9019 17.7681 24.6608 19.527 24.6608 21.6966C24.6608 23.8663 22.9019 25.6252 20.7323 25.6252C18.5626 25.6252 16.8037 23.8663 16.8037 21.6966M20.7323 17.7681C18.5626 17.7681 16.8037 19.527 16.8037 21.6966M20.7323 17.7681C21.9108 17.7681 22.9616 18.2884 23.6786 19.1036V11.3839C23.6786 8.4375 22.2054 6.47322 18.7679 6.47322H10.9107C7.47322 6.47322 6 8.4375 6 11.3839V19.7322C6 22.6786 7.47322 24.6429 10.9107 24.6429H18.1491C17.8447 24.3875 17.5795 24.0732 17.3732 23.7197C17.0098 23.1304 16.8037 22.4333 16.8037 21.6966M20.7323 17.7681C18.5617 17.7681 16.8037 19.5261 16.8037 21.6966M22.1955 21.7457H19.2687M20.7322 20.3117V23.2483" stroke="white" stroke-width="1.47322" stroke-miterlimit="10" stroke-linecap="round" stroke-linejoin="round"/>
</svg>
