<svg width="20" height="20" viewBox="0 0 20 20" fill="none" xmlns="http://www.w3.org/2000/svg">
<path d="M9.87652 0.226562C4.55572 0.226562 0.226807 4.55548 0.226807 9.87627C0.226807 15.1971 4.55572 19.526 9.87652 19.526C15.1973 19.526 19.5262 15.1971 19.5262 9.87627C19.5262 4.55548 15.1973 0.226562 9.87652 0.226562ZM11.3611 14.33H8.39195C8.19508 14.33 8.00628 14.2518 7.86707 14.1126C7.72787 13.9734 7.64966 13.7846 7.64966 13.5877C7.64966 13.3908 7.72787 13.202 7.86707 13.0628C8.00628 12.9236 8.19508 12.8454 8.39195 12.8454H11.3611C11.558 12.8454 11.7468 12.9236 11.886 13.0628C12.0252 13.202 12.1034 13.3908 12.1034 13.5877C12.1034 13.7846 12.0252 13.9734 11.886 14.1126C11.7468 14.2518 11.558 14.33 11.3611 14.33ZM13.5879 11.3608H6.16509C5.96822 11.3608 5.77942 11.2826 5.64022 11.1434C5.50101 11.0042 5.4228 10.8154 5.4228 10.6186C5.4228 10.4217 5.50101 10.2329 5.64022 10.0937C5.77942 9.95448 5.96822 9.87627 6.16509 9.87627H13.5879C13.7848 9.87627 13.9736 9.95448 14.1128 10.0937C14.252 10.2329 14.3302 10.4217 14.3302 10.6186C14.3302 10.8154 14.252 11.0042 14.1128 11.1434C13.9736 11.2826 13.7848 11.3608 13.5879 11.3608ZM15.0725 8.3917H4.68052C4.48365 8.3917 4.29485 8.3135 4.15564 8.17429C4.01644 8.03509 3.93823 7.84628 3.93823 7.64942C3.93823 7.45255 4.01644 7.26375 4.15564 7.12454C4.29485 6.98534 4.48365 6.90713 4.68052 6.90713H15.0725C15.2694 6.90713 15.4582 6.98534 15.5974 7.12454C15.7366 7.26375 15.8148 7.45255 15.8148 7.64942C15.8148 7.84628 15.7366 8.03509 15.5974 8.17429C15.4582 8.3135 15.2694 8.3917 15.0725 8.3917Z" fill="currentColor"/>
</svg>
