<svg width="25" height="24" viewBox="0 0 25 24" fill="none" xmlns="http://www.w3.org/2000/svg">
<path d="M12.486 13.708C12.463 13.708 12.4286 13.708 12.4056 13.708C12.3712 13.708 12.3252 13.708 12.2908 13.708C9.68336 13.6298 7.73071 11.654 7.73071 9.22051C7.73071 6.74238 9.80971 4.72192 12.3597 4.72192C14.9096 4.72192 16.9886 6.74238 16.9886 9.22051C16.9771 11.6652 15.013 13.6298 12.5205 13.708C12.4975 13.708 12.4975 13.708 12.486 13.708ZM12.3482 6.38517C10.7401 6.38517 9.44215 7.65772 9.44215 9.20934C9.44215 10.7387 10.6712 11.9777 12.2333 12.0335C12.2678 12.0224 12.3826 12.0224 12.4975 12.0335C14.0366 11.9554 15.2427 10.7275 15.2542 9.20934C15.2542 7.65772 13.9562 6.38517 12.3482 6.38517Z" fill="currentColor"/>
<path d="M12.3485 24.0001C9.25875 24.0001 6.3068 22.8839 4.02106 20.8522C3.81431 20.6736 3.72242 20.4057 3.74539 20.149C3.89471 18.8206 4.74468 17.5816 6.15748 16.6662C9.58036 14.456 15.1282 14.456 18.5396 16.6662C19.9523 17.5927 20.8023 18.8206 20.9516 20.149C20.9861 20.4169 20.8827 20.6736 20.676 20.8522C18.3902 22.8839 15.4383 24.0001 12.3485 24.0001ZM5.54872 19.9257C7.45542 21.4774 9.85603 22.3257 12.3485 22.3257C14.841 22.3257 17.2416 21.4774 19.1483 19.9257C18.9416 19.2448 18.3902 18.5862 17.5747 18.0504C14.7491 16.2197 9.9594 16.2197 7.11083 18.0504C6.29532 18.5862 5.75547 19.2448 5.54872 19.9257Z" fill="currentColor"/>
<path d="M12.3476 23.9999C5.53633 23.9999 0 18.6194 0 11.9999C0 5.38044 5.53633 0 12.3476 0C19.1589 0 24.6952 5.38044 24.6952 11.9999C24.6952 18.6194 19.1589 23.9999 12.3476 23.9999ZM12.3476 1.67441C6.48968 1.67441 1.72292 6.30695 1.72292 11.9999C1.72292 17.6929 6.48968 22.3255 12.3476 22.3255C18.2056 22.3255 22.9723 17.6929 22.9723 11.9999C22.9723 6.30695 18.2056 1.67441 12.3476 1.67441Z" fill="currentColor"/>
</svg>
