<svg width="20" height="24" viewBox="0 0 20 24" fill="none" xmlns="http://www.w3.org/2000/svg">
<path d="M5.93244 8.02308L5.93 8.02506L5.92768 8.02732L5.93244 8.02308ZM16.7324 7.82069C16.6569 7.74794 16.5732 7.68429 16.4829 7.63103C16.355 7.5558 16.2131 7.50759 16.0659 7.48938C15.9187 7.47116 15.7694 7.48334 15.6271 7.52515C15.4848 7.56696 15.3525 7.63751 15.2386 7.73245C15.1246 7.82739 15.0314 7.94469 14.9645 8.07711C14.5908 8.81347 14.0753 9.46879 13.4477 10.0055C13.5437 9.46473 13.5921 8.91661 13.5924 8.36741C13.5944 6.69666 13.1536 5.05521 12.315 3.61018C11.4763 2.16516 10.2697 0.968183 8.81805 0.141119C8.65814 0.0504662 8.47781 0.0019271 8.29399 5.62115e-05C8.11018 -0.00181467 7.9289 0.043044 7.76717 0.130423C7.60544 0.217802 7.46856 0.344837 7.36938 0.499607C7.27019 0.654377 7.21195 0.831809 7.20013 1.01525C7.13941 2.044 6.87047 3.04971 6.4096 3.97145C5.94873 4.89319 5.30553 5.71178 4.51896 6.3776L4.26891 6.58103C3.4464 7.13447 2.71836 7.81671 2.11273 8.60158C1.17132 9.78758 0.519168 11.1766 0.208009 12.6585C-0.10315 14.1404 -0.0647615 15.6744 0.320129 17.1389C0.70502 18.6034 1.42583 19.9581 2.42539 21.0955C3.42495 22.2329 4.67577 23.1218 6.07866 23.6917C6.24338 23.759 6.42213 23.7847 6.59915 23.7666C6.77616 23.7485 6.94601 23.6871 7.09369 23.5879C7.24137 23.4886 7.36236 23.3545 7.44598 23.1975C7.5296 23.0404 7.57328 22.8652 7.57317 22.6872C7.5724 22.5721 7.55418 22.4578 7.51914 22.3482C7.2764 21.4357 7.2065 20.4859 7.31305 19.5478C8.3397 21.4841 9.98767 23.019 11.992 23.9057C12.2367 24.0151 12.5132 24.0299 12.7681 23.947C14.3517 23.4359 15.7783 22.5283 16.9124 21.3106C18.0464 20.0928 18.8503 18.6053 19.2475 16.9894C19.6447 15.3735 19.6222 13.6828 19.182 12.0781C18.7418 10.4733 17.8985 9.00777 16.7324 7.82069ZM12.4958 21.7421C11.5501 21.2628 10.7158 20.5898 10.0472 19.7669C9.37861 18.9439 8.89071 17.9895 8.61522 16.9657C8.53108 16.6209 8.466 16.2718 8.42026 15.9199C8.38927 15.6958 8.28902 15.487 8.13352 15.3226C7.97803 15.1583 7.77507 15.0467 7.55302 15.0034C7.48462 14.9899 7.41505 14.9831 7.34533 14.9832C7.15463 14.9832 6.96729 15.0334 6.8022 15.1288C6.6371 15.2243 6.50009 15.3615 6.40498 15.5268C5.50474 17.0796 5.05201 18.8512 5.09696 20.6455C4.30519 20.0299 3.64347 19.2633 3.15016 18.39C2.65685 17.5168 2.34176 16.5544 2.22315 15.5585C2.10454 14.5626 2.18477 13.553 2.45919 12.5884C2.73361 11.6237 3.19676 10.7231 3.8218 9.93876C4.29638 9.32232 4.8689 8.78792 5.51653 8.35687C5.54458 8.33877 5.57147 8.31895 5.59706 8.29753C5.59706 8.29753 5.919 8.03116 5.93 8.02506C7.47576 6.71762 8.57515 4.96059 9.07503 2.99873C10.2572 4.09155 11.0454 5.54412 11.3174 7.13088C11.5894 8.71763 11.3298 10.3498 10.5791 11.7739C10.4799 11.9639 10.4392 12.1791 10.4621 12.3922C10.4851 12.6054 10.5706 12.8069 10.708 12.9715C10.8453 13.1361 11.0284 13.2563 11.234 13.3169C11.4396 13.3776 11.6585 13.376 11.8632 13.3124C13.5252 12.7914 14.9876 11.7738 16.0537 10.3965C16.6945 11.3429 17.1134 12.4218 17.2792 13.5526C17.4451 14.6834 17.3536 15.8371 17.0116 16.9276C16.6696 18.0181 16.0859 19.0175 15.304 19.8511C14.5221 20.6847 13.5622 21.331 12.4958 21.7421Z" fill="currentColor"/>
</svg>
