<svg width="52" height="53" viewBox="0 0 52 53" fill="none" xmlns="http://www.w3.org/2000/svg">
<g clip-path="url(#clip0_1358_6909)">
<circle cx="26" cy="27" r="20" fill="#FD7E14"/>
<path fill-rule="evenodd" clip-rule="evenodd" d="M15 17L16 16H24L25 17V25L24 26H16L15 25V17ZM17 18V24H23V18H17ZM28 16L27 17V25L28 26H36L37 25V17L36 16H28ZM29 24V18H35V24H29ZM33 38H31V34H27V32H31V28H33V32H37V34H33V38ZM16 28L15 29V37L16 38H24L25 37V29L24 28H16ZM17 36V30H23V36H17Z" fill="white"/>
</g>
<defs>
<clipPath id="clip0_1358_6909">
<rect width="52" height="53" fill="white"/>
</clipPath>
</defs>
</svg>
