<svg width="27" height="24" viewBox="0 0 27 24" fill="none" xmlns="http://www.w3.org/2000/svg">
<path fill-rule="evenodd" clip-rule="evenodd" d="M8 1.33333C8 0.597333 8.55067 0 9.23067 0H17.436C18.116 0 18.6667 0.597333 18.6667 1.33333C18.6667 2.06933 18.116 2.66667 17.436 2.66667H9.23067C8.55067 2.66667 8 2.06933 8 1.33333ZM10.3707 24H16.296C20.4573 24 22.5387 24 24.0333 23.0373C24.6764 22.6239 25.2318 22.0879 25.668 21.46C26.6667 20.02 26.6667 18.0133 26.6667 14C26.6667 9.98667 26.6667 7.98133 25.6667 6.54C25.231 5.91215 24.676 5.37619 24.0333 4.96267C22.5387 4 20.4573 4 16.296 4H10.3707C6.20933 4 4.128 4 2.63333 4.96267C1.9907 5.37622 1.43571 5.91218 1 6.54C0 7.98 0 9.98667 0 13.9973V14C0 18.0133 7.94729e-08 20.0187 0.998667 21.46C1.43067 22.084 1.98533 22.62 2.63333 23.0373C4.128 24 6.20933 24 10.3707 24ZM7.77733 14C7.77733 11.04 10.2653 8.64267 13.3333 8.64267C16.4013 8.64267 18.8893 11.0413 18.8893 14C18.8893 16.9587 16.4 19.3573 13.3333 19.3573C10.2653 19.3573 7.77733 16.9573 7.77733 14ZM10 14C10 12.224 11.4933 10.7867 13.3333 10.7867C15.1733 10.7867 16.6667 12.2253 16.6667 14C16.6667 15.7747 15.1733 17.2133 13.3333 17.2133C11.4933 17.2133 10 15.7747 10 14ZM21.4813 8.64267C20.868 8.64267 20.3707 9.12267 20.3707 9.71467C20.3707 10.3053 20.868 10.7853 21.4813 10.7853H22.2227C22.836 10.7853 23.3333 10.3053 23.3333 9.71467C23.3333 9.12267 22.836 8.64267 22.2227 8.64267H21.4813Z" fill="#242760" fill-opacity="0.81"/>
</svg>
