<svg width="27" height="27" viewBox="0 0 27 27" fill="none" xmlns="http://www.w3.org/2000/svg">
<path d="M9 18C9 21.1819 9 22.7729 9.98852 23.7615C10.977 24.75 12.568 24.75 15.75 24.75H16.875C20.0569 24.75 21.6479 24.75 22.6365 23.7615C23.625 22.7729 23.625 21.1819 23.625 18V9C23.625 5.81802 23.625 4.22703 22.6365 3.23851C21.6479 2.25 20.0569 2.25 16.875 2.25H15.75C12.568 2.25 10.977 2.25 9.98852 3.23851C9 4.22703 9 5.81802 9 9" stroke="white" stroke-width="1.6875" stroke-linecap="round"/>
<path d="M9 21.9375C6.34835 21.9375 5.02253 21.9375 4.19876 21.1138C3.375 20.2899 3.375 18.9641 3.375 16.3125V10.6875C3.375 8.03585 3.375 6.71003 4.19876 5.88626C5.02253 5.0625 6.34835 5.0625 9 5.0625" stroke="white" stroke-width="1.6875"/>
<path d="M6.75 13.5H16.875M16.875 13.5L14.0625 16.3125M16.875 13.5L14.0625 10.6875" stroke="white" stroke-width="1.6875" stroke-linecap="round" stroke-linejoin="round"/>
</svg>
