<svg width="27" height="27" viewBox="0 0 27 27" fill="none" xmlns="http://www.w3.org/2000/svg">
<path d="M24.75 7.44997V19.4006C24.75 20.6526 23.9464 21.9047 22.6837 22.3598L16.9438 24.5224C16.5995 24.6362 16.2551 24.75 15.7959 24.75C15.2219 24.75 14.5332 24.5224 13.9592 24.181C13.7296 23.9533 13.3852 23.7257 13.2704 23.498H8.90814C7.1862 23.498 5.69385 22.1322 5.69385 20.3112V19.173C5.69385 18.7178 6.03824 18.2625 6.61222 18.2625C7.18621 18.2625 7.53059 18.6039 7.53059 19.173V20.3112C7.53059 21.1079 8.21936 21.677 8.90814 21.677H12.6964V5.28747H8.90814C8.10456 5.28747 7.53059 5.85655 7.53059 6.65327V7.79142C7.53059 8.24668 7.18621 8.70195 6.61222 8.70195C6.03824 8.70195 5.69385 8.24668 5.69385 7.79142V6.65327C5.69385 4.94602 7.07141 3.46641 8.90814 3.46641H13.2704C13.5 3.23878 13.7296 3.01115 13.9592 2.78351C14.8775 2.21443 15.9107 2.10062 16.9438 2.44206L22.6837 4.60457C23.8316 4.94602 24.75 6.198 24.75 7.44997Z" fill="white"/>
<path d="M5.46428 16.6691C5.23469 16.6691 5.0051 16.5554 4.89031 16.4415L2.59438 14.1652C2.47959 14.0513 2.47959 13.9376 2.3648 13.9376C2.3648 13.8237 2.25 13.7099 2.25 13.5962C2.25 13.4823 2.25 13.3685 2.3648 13.2547C2.3648 13.1409 2.47959 13.027 2.59438 13.027L4.89031 10.7507C5.23469 10.4093 5.80868 10.4093 6.15306 10.7507C6.49745 11.0922 6.49745 11.6613 6.15306 12.0027L5.34949 12.7994H10.0561C10.5153 12.7994 10.9745 13.1409 10.9745 13.7099C10.9745 14.279 10.5153 14.3929 10.0561 14.3929H5.23469L6.03827 15.1895C6.38265 15.5309 6.38265 16.1001 6.03827 16.4415C5.92347 16.5554 5.69387 16.6691 5.46428 16.6691Z" fill="white"/>
</svg>
