<svg width="27" height="27" viewBox="0 0 27 27" fill="none" xmlns="http://www.w3.org/2000/svg">
<path d="M19.2554 5.43984C19.673 5.44059 20.0733 5.60663 20.3689 5.90167C20.6645 6.1967 20.8312 6.59675 20.8327 7.01437V22.0235C20.8312 22.4411 20.6645 22.8412 20.3689 23.1362C20.0733 23.4313 19.673 23.5973 19.2554 23.5981H7.74485C7.32723 23.5973 6.92688 23.4313 6.63131 23.1362C6.33574 22.8412 6.16898 22.4411 6.16748 22.0235V7.01437C6.16898 6.59675 6.33574 6.1967 6.63131 5.90167C6.92688 5.60663 7.32723 5.44059 7.74485 5.43984H8.33459V7.01437H7.74627L7.74343 7.01721V22.0207L7.74627 22.0235H19.254L19.2568 22.0207V7.01721L19.254 7.01437H18.6656V5.43984H19.2554ZM17.8627 11.2321H8.98116V12.8066H17.8627V11.2321ZM17.8627 14.5531H8.98116V16.1276H17.8627V14.5531ZM17.8627 17.8741H8.98116V19.4486H17.8627V17.8741ZM17.0911 5.17695V6.95326C17.0911 7.13242 17.02 7.30425 16.8935 7.43106C16.7669 7.55788 16.5953 7.62931 16.4161 7.62969H10.5841C10.4052 7.62931 10.2337 7.55807 10.1072 7.43157C9.98072 7.30506 9.90949 7.13359 9.90911 6.95469V5.17837C9.90911 4.99922 9.98018 4.82738 10.1067 4.70057C10.2333 4.57376 10.405 4.50232 10.5841 4.50195H11.5746V2.65742C11.575 2.47852 11.6462 2.30705 11.7727 2.18054C11.8992 2.05403 12.0707 1.9828 12.2496 1.98242H14.7506C14.9295 1.9828 15.101 2.05403 15.2275 2.18054C15.354 2.30705 15.4253 2.47852 15.4256 2.65742V4.50479H16.4161C16.5948 4.50516 16.766 4.57621 16.8925 4.7024C17.019 4.8286 17.0904 4.99971 17.0911 5.17837V5.17695ZM14.2817 3.79426C14.2817 3.63856 14.2355 3.48635 14.149 3.35688C14.0625 3.22742 13.9396 3.12651 13.7957 3.06693C13.6518 3.00734 13.4936 2.99175 13.3408 3.02213C13.1881 3.0525 13.0478 3.12748 12.9377 3.23758C12.8276 3.34769 12.7527 3.48796 12.7223 3.64068C12.6919 3.79339 12.7075 3.95168 12.7671 4.09554C12.8267 4.23939 12.9276 4.36234 13.057 4.44885C13.1865 4.53535 13.3387 4.58153 13.4944 4.58153C13.7032 4.58153 13.9035 4.49858 14.0511 4.35094C14.1987 4.2033 14.2817 4.00306 14.2817 3.79426Z" fill="white"/>
</svg>
