<svg width="26" height="26" viewBox="0 0 26 26" fill="none" xmlns="http://www.w3.org/2000/svg">
<path opacity="0.4" d="M20.2253 2.16699H18.1669C15.8053 2.16699 14.5594 3.41283 14.5594 5.77449V7.83283C14.5594 10.1945 15.8053 11.4403 18.1669 11.4403H20.2253C22.5869 11.4403 23.8328 10.1945 23.8328 7.83283V5.77449C23.8328 3.41283 22.5869 2.16699 20.2253 2.16699Z" fill="white"/>
<path opacity="0.4" d="M7.84335 14.5498H5.78502C3.41252 14.5498 2.16669 15.7956 2.16669 18.1573V20.2156C2.16669 22.5881 3.41252 23.834 5.77419 23.834H7.83252C10.1942 23.834 11.44 22.5881 11.44 20.2265V18.1681C11.4509 15.7956 10.205 14.5498 7.84335 14.5498Z" fill="white"/>
<path d="M6.81419 11.462C9.38093 11.462 11.4617 9.38123 11.4617 6.81449C11.4617 4.24775 9.38093 2.16699 6.81419 2.16699C4.24745 2.16699 2.16669 4.24775 2.16669 6.81449C2.16669 9.38123 4.24745 11.462 6.81419 11.462Z" fill="white"/>
<path d="M19.1857 23.8331C21.7524 23.8331 23.8332 21.7523 23.8332 19.1856C23.8332 16.6188 21.7524 14.5381 19.1857 14.5381C16.619 14.5381 14.5382 16.6188 14.5382 19.1856C14.5382 21.7523 16.619 23.8331 19.1857 23.8331Z" fill="white"/>
</svg>
