<svg width="27" height="27" viewBox="0 0 27 27" fill="none" xmlns="http://www.w3.org/2000/svg">
<g clip-path="url(#clip0_1358_5398)">
<path d="M22.5002 8.32495V20.1375C22.5002 22.05 21.0377 23.5125 19.1252 23.5125H6.6377C6.6377 24.75 7.6502 25.7625 8.8877 25.7625H20.2502C22.7252 25.7625 24.7502 23.7375 24.7502 21.2625V10.575C24.7502 9.33745 23.7377 8.32495 22.5002 8.32495Z" fill="white"/>
<path d="M5.625 1.23755V3.48755H4.5C3.2625 3.48755 2.25 4.50005 2.25 5.73755V19.2375C2.25 20.475 3.2625 21.4875 4.5 21.4875H18.225C19.4625 21.4875 20.475 20.475 20.475 19.2375V5.73755C20.475 4.50005 19.4625 3.48755 18.225 3.48755H17.1V1.23755H14.85V3.48755H7.875V1.23755H5.625ZM4.5 9.11255H18.225V19.2375H4.5V9.11255Z" fill="white"/>
<path d="M15.4125 18.3375L12.7125 16.7625L10.125 18.3375L10.8 15.3L8.4375 13.275L11.5875 13.05L12.825 10.125L14.0625 12.9375L17.2125 13.275L14.85 15.3L15.4125 18.3375Z" fill="white"/>
</g>
<defs>
<clipPath id="clip0_1358_5398">
<rect width="27" height="27" fill="white"/>
</clipPath>
</defs>
</svg>
