<svg width="152" height="152" viewBox="0 0 152 152" fill="none" xmlns="http://www.w3.org/2000/svg">
<path d="M76 152C117.973 152 152 117.974 152 76C152 34.0264 117.973 0 76 0C34.0263 0 0 34.0264 0 76C0 117.974 34.0263 152 76 152Z" fill="#9C9C9C"/>
<path d="M76 40C59.44 40 46 53.458 46 70.0399C46 86.3017 58.72 99.5194 75.6 100C75.84 100 76.16 100 76.32 100C76.48 100 76.72 100 76.88 100C76.96 100 77.04 100 77.04 100C93.2 99.4392 105.92 86.3017 106 70.0399C106 53.458 92.56 40 76 40Z" fill="white"/>
<path d="M131.5 128C122 138 105.5 151 77.0736 152C55.4999 152 37.9999 144.5 22.9999 130.5C24.9468 123.385 29.2934 117.676 36.9999 112.673C59.1459 98.4427 95.1636 98.4427 117.147 112.673C124.935 117.676 129.553 120.885 131.5 128Z" fill="white"/>
</svg>
