<svg width="26" height="25" viewBox="0 0 26 25" fill="none" xmlns="http://www.w3.org/2000/svg">
<path d="M16.1123 20.2537C16.1123 20.5696 16.0283 20.8825 15.865 21.1745C15.7017 21.4665 15.4623 21.7317 15.1606 21.9552C14.8588 22.1787 14.5006 22.3559 14.1063 22.4768C13.7121 22.5977 13.2895 22.66 12.8628 22.66C12.4361 22.66 12.0136 22.5977 11.6192 22.4768C11.225 22.3559 10.8667 22.1787 10.565 21.9552C10.2633 21.7317 10.0239 21.4665 9.86064 21.1745C9.69733 20.8825 9.61328 20.5696 9.61328 20.2537" stroke="white" stroke-width="2" stroke-linecap="round"/>
<path d="M21.2492 13.7393L21.5359 14.3339C22.6295 16.6015 21.2052 19.252 18.649 19.7063L18.4755 19.7371C14.765 20.3966 10.9603 20.3966 7.24982 19.7371C4.67267 19.2791 3.30924 16.5375 4.55633 14.3212L4.80161 13.8852C5.47129 12.695 5.82199 11.3631 5.82199 10.0099V8.63351C5.82199 6.31706 7.18552 4.20018 9.34232 3.16814C11.5678 2.10327 14.1756 2.06705 16.4321 3.06967L16.6538 3.16814C18.9651 4.1951 20.4449 6.42009 20.4449 8.8683V10.2335C20.4449 11.4444 20.7194 12.6408 21.2492 13.7393Z" stroke="white" stroke-width="2"/>
</svg>
