<svg width="20" height="23" viewBox="0 0 20 23" fill="none" xmlns="http://www.w3.org/2000/svg">
<path d="M13.1123 19.2534C13.1123 19.5694 13.0283 19.8823 12.865 20.1743C12.7017 20.4662 12.4623 20.7314 12.1606 20.955C11.8588 21.1784 11.5006 21.3556 11.1063 21.4765C10.7121 21.5975 10.2895 21.6598 9.86278 21.6598C9.43606 21.6598 9.01356 21.5975 8.61922 21.4765C8.225 21.3556 7.86674 21.1784 7.56504 20.955C7.2633 20.7314 7.02394 20.4662 6.86064 20.1743C6.69733 19.8823 6.61328 19.5694 6.61328 19.2534" stroke="#767676" stroke-width="2" stroke-linecap="round"/>
<path d="M18.2492 12.7393L18.5359 13.3339C19.6295 15.6015 18.2052 18.252 15.649 18.7063L15.4755 18.7371C11.765 19.3966 7.96026 19.3966 4.24982 18.7371C1.67267 18.2791 0.309241 15.5375 1.55633 13.3212L1.80161 12.8852C2.47129 11.695 2.82199 10.3631 2.82199 9.00985V7.63351C2.82199 5.31706 4.18552 3.20018 6.34232 2.16814C8.56779 1.10327 11.1756 1.06705 13.4321 2.06967L13.6538 2.16814C15.9651 3.1951 17.4449 5.42009 17.4449 7.8683V9.23354C17.4449 10.4444 17.7194 11.6408 18.2492 12.7393Z" stroke="#767676" stroke-width="2"/>
</svg>
